# xmcd
#
# Track frame offsets:
#	150
#	20091
#	36517
#	49924
#	75029
#	92235
#	108414
#	124441
#	143257
#	158845
#	172642
#	188289
#	204956
#	224258
#	235884
#	249961
#	259777
#	271940
#	283942
#	305601
#	320903
#
# Disc length: 4468 seconds
#
# Revision: 1
# Processed by: cddbd v1.5.1PL0 Copyright (c) Steve Scherf et al.
# Submitted via: CDex 1.50Beta5
#
DISCID=20117215
DTITLE=サウンドトラック - PRO-WRESTLING MIX
DYEAR=1900
DGENRE=Soundtrack
TTITLE0="AO"corner
TTITLE1=スパルタンX
TTITLE2=GROUND SWORD
TTITLE3=SCORE
TTITLE4=nWo Crash
TTITLE5=nWo Triumph
TTITLE6=愚零闘武多 協奏曲
TTITLE7=爆勝宣言
TTITLE8=怒りの獣神
TTITLE9=POWER HALL
TTITLE10=TAKE THE DREAM
TTITLE11=スカイ・ハイ
TTITLE12=王者の魂
TTITLE13=J〜ジャンボ鶴田のテーマ
TTITLE14=Thunder Storm
TTITLE15=タイガーマスクのテーマ〜2代目タイガーマスク
TTITLE16=SPINNING TOE-HOLD
TTITLE17=UWF Pro-Wrestling Main
TTITLE18=SPEED TK RE-MIX〜炎のコマ〜
TTITLE19=RUSH!!
TTITLE20=炎のファイター INOKI BOM-BA-YE
EXTD=
EXTT0=
EXTT1=
EXTT2=
EXTT3=
EXTT4=
EXTT5=
EXTT6=
EXTT7=
EXTT8=
EXTT9=
EXTT10=
EXTT11=
EXTT12=
EXTT13=
EXTT14=
EXTT15=
EXTT16=
EXTT17=
EXTT18=
EXTT19=
EXTT20=
PLAYORDER=
